<svg width="69" height="80" viewBox="0 0 69 80" fill="none" xmlns="http://www.w3.org/2000/svg">
<path fill-rule="evenodd" clip-rule="evenodd" d="M65.857 19.151L67.733 14.556C67.733 14.556 65.345 12.003 62.446 9.109C59.548 6.215 53.409 7.917 53.409 7.917L46.417 0H21.863L14.87 7.917C14.87 7.917 8.73301 6.215 5.83401 9.11C4.04424 10.8985 2.28203 12.7144 0.548011 14.557L2.42301 19.152L0.0360107 25.96C0.0360107 25.96 7.05701 52.505 7.88001 55.747C9.50001 62.13 10.608 64.598 15.212 67.832C19.816 71.066 28.172 76.683 29.536 77.535C30.9 78.385 32.606 79.835 34.14 79.835C35.675 79.835 37.38 78.385 38.744 77.535C40.108 76.683 48.464 71.066 53.068 67.832C57.672 64.598 58.78 62.13 60.4 55.747C61.223 52.505 68.244 25.96 68.244 25.96L65.857 19.151V19.151Z" fill="url(#paint0_linear_102_69)"/>
<path fill-rule="evenodd" clip-rule="evenodd" d="M51.447 12.939C51.447 12.939 60.44 23.789 60.44 26.109C60.44 28.429 59.309 29.04 58.171 30.246L51.429 37.393C50.791 38.069 49.463 39.094 50.244 40.94C51.025 42.785 52.177 45.133 50.896 47.515C49.614 49.896 47.419 51.485 46.012 51.223C44.605 50.96 41.302 49.237 40.087 48.449C38.872 47.662 35.021 44.492 35.021 43.279C35.021 42.066 39.001 39.889 39.737 39.394C40.472 38.899 43.827 36.984 43.895 36.233C43.964 35.481 43.938 35.26 42.948 33.403C41.958 31.545 40.175 29.067 40.472 27.418C40.769 25.768 43.644 24.911 45.695 24.138C47.747 23.364 51.697 21.904 52.19 21.677C52.684 21.449 52.556 21.233 51.061 21.092C49.567 20.95 45.325 20.388 43.412 20.92C41.5 21.452 38.232 22.262 37.968 22.691C37.703 23.121 37.47 23.135 37.742 24.616C38.014 26.096 39.412 33.202 39.548 34.464C39.684 35.727 39.95 36.561 38.587 36.872C37.223 37.183 34.928 37.723 34.14 37.723C33.351 37.723 31.056 37.183 29.692 36.872C28.329 36.561 28.595 35.727 28.731 34.464C28.866 33.202 30.266 26.097 30.537 24.616C30.809 23.135 30.576 23.12 30.311 22.691C30.047 22.261 26.779 21.452 24.867 20.921C22.954 20.388 18.713 20.951 17.217 21.091C15.723 21.233 15.596 21.449 16.089 21.677C16.583 21.904 20.533 23.364 22.584 24.137C24.636 24.911 27.511 25.768 27.807 27.417C28.104 29.067 26.321 31.545 25.332 33.403C24.342 35.26 24.315 35.481 24.384 36.233C24.453 36.984 27.807 38.899 28.543 39.393C29.278 39.889 33.258 42.066 33.258 43.279C33.258 44.492 29.408 47.662 28.193 48.449C26.978 49.237 23.674 50.96 22.267 51.223C20.86 51.486 18.665 49.896 17.383 47.515C16.102 45.133 17.254 42.785 18.035 40.94C18.816 39.094 17.489 38.07 16.851 37.393L10.108 30.246C8.97002 29.04 7.83902 28.428 7.83902 26.109C7.83902 23.789 16.832 12.939 16.832 12.939C16.832 12.939 24.42 14.386 25.443 14.386C26.466 14.386 28.683 13.535 30.729 12.854C32.776 12.173 34.139 12.168 34.139 12.168C34.139 12.168 35.504 12.173 37.55 12.854C39.596 13.534 41.813 14.386 42.836 14.386C43.859 14.386 51.447 12.939 51.447 12.939V12.939ZM44.707 54.446C45.263 54.794 44.923 55.45 44.417 55.808C43.909 56.166 37.095 61.433 36.434 62.015C35.772 62.597 34.8 63.559 34.14 63.559C33.479 63.559 32.507 62.597 31.846 62.015C31.184 61.433 24.37 56.165 23.863 55.808C23.356 55.45 23.017 54.794 23.573 54.446C24.13 54.099 25.872 53.221 28.275 51.979C30.677 50.739 33.672 49.683 34.14 49.683C34.607 49.683 37.602 50.738 40.005 51.979C42.408 53.221 44.149 54.099 44.706 54.446H44.707Z" fill="white"/>
<mask id="mask0_102_69" style="mask-type:alpha" maskUnits="userSpaceOnUse" x="5" y="0" width="58" height="15">
<path d="M53.408 7.917L46.418 0H21.861L14.87 7.917C14.87 7.917 8.73201 6.215 5.83301 9.11C5.83301 9.11 14.018 8.372 16.832 12.94C16.832 12.94 24.42 14.387 25.443 14.387C26.466 14.387 28.683 13.536 30.729 12.855C32.776 12.174 34.139 12.169 34.139 12.169C34.139 12.169 35.504 12.174 37.55 12.855C39.596 13.535 41.813 14.387 42.836 14.387C43.859 14.387 51.448 12.94 51.448 12.94C54.261 8.372 62.446 9.11 62.446 9.11C59.547 6.216 53.408 7.918 53.408 7.918V7.917Z" fill="white"/>
</mask>
<g mask="url(#mask0_102_69)">
<path d="M53.408 7.917L46.418 0H21.861L14.87 7.917C14.87 7.917 8.73201 6.215 5.83301 9.11C5.83301 9.11 14.018 8.372 16.832 12.94C16.832 12.94 24.42 14.387 25.443 14.387C26.466 14.387 28.683 13.536 30.729 12.855C32.776 12.174 34.139 12.169 34.139 12.169C34.139 12.169 35.504 12.174 37.55 12.855C39.596 13.535 41.813 14.387 42.836 14.387C43.859 14.387 51.448 12.94 51.448 12.94C54.261 8.372 62.446 9.11 62.446 9.11C59.547 6.216 53.408 7.918 53.408 7.918V7.917Z" fill="url(#paint1_linear_102_69)"/>
</g>
<defs>
<linearGradient id="paint0_linear_102_69" x1="0.0361435" y1="40.4809" x2="68.2441" y2="40.4809" gradientUnits="userSpaceOnUse">
<stop stop-color="#FF5500"/>
<stop offset="0.409877" stop-color="#FF5500"/>
<stop offset="0.581981" stop-color="#FF2000"/>
<stop offset="1" stop-color="#FF2000"/>
</linearGradient>
<linearGradient id="paint1_linear_102_69" x1="7.04979" y1="7.29426" x2="62.4461" y2="7.29426" gradientUnits="userSpaceOnUse">
<stop stop-color="#FF452A"/>
<stop offset="1" stop-color="#FF2000"/>
</linearGradient>
</defs>
</svg>
